<?xml version="1.0" standalone="no"?>
<!DOCTYPE svg PUBLIC "-//W3C//DTD SVG 20010904//EN"
 "http://www.w3.org/TR/2001/REC-SVG-20010904/DTD/svg10.dtd">
<svg version="1.0" xmlns="http://www.w3.org/2000/svg"
 height="1.5rem" viewBox="0 0 300.000000 280.000000"
 preserveAspectRatio="xMidYMid meet">

<g transform="translate(0.000000,280.000000) scale(0.100000,-0.100000)"
fill="#000000" stroke="none">
<path d="M15 2778 c-3 -7 -4 -632 -3 -1388 l3 -1375 1485 0 1485 0 0 1385 0
1385 -1483 3 c-1181 2 -1484 0 -1487 -10z m2900 -1378 l0 -1315 -1415 0 -1415
0 -3 1305 c-1 718 0 1311 3 1318 3 10 292 12 1417 10 l1413 -3 0 -1315z"/>
<path d="M360 1740 l0 -710 30 0 30 0 0 650 c0 358 3 650 8 649 4 0 221 -293
482 -650 460 -631 475 -650 505 -647 l30 3 3 708 2 707 -35 0 -35 0 -2 -644
-3 -645 -357 482 c-196 265 -409 555 -475 644 -110 151 -120 162 -150 163
l-33 0 0 -710z"/>
<path d="M1670 1710 l0 -30 240 0 240 0 2 -677 3 -678 33 -3 32 -3 0 680 0
681 240 0 240 0 0 30 0 30 -515 0 -515 0 0 -30z"/>
</g>
</svg>
